HIERARCHY
ROOT Pelvis
{
	OFFSET 0.000000 0.000000 0.000000
	CHANNELS 6 Xposition Yposition Zposition Xrotation Yrotation Zrotation
	JOINT LeftUpLeg_virtual
	{
		OFFSET 0.000000 0.000000 0.000000
		CHANNELS 3 Xrotation Yrotation Zrotation
		JOINT LeftUpLeg
		{
			OFFSET 18.735201 -5.666702 -4.541200
			CHANNELS 3 Xrotation Yrotation Zrotation
			JOINT LeftLeg
			{
				OFFSET -0.021200 -31.938179 0.493100
				CHANNELS 3 Xrotation Yrotation Zrotation
				JOINT LeftFoot
				{
					OFFSET 0.021200 -31.938179 -4.336299
					CHANNELS 3 Xrotation Yrotation Zrotation
					JOINT LeftToeBase
					{
						OFFSET 0.943001 -26.722000 15.023500
						CHANNELS 3 Xrotation Yrotation Zrotation
						End Site
						{
							OFFSET 0 0 0
						}
					}
				}
			}
		}
	}
	JOINT RightUpLeg_virtual
	{
		OFFSET 0.000000 0.000000 0.000000
		CHANNELS 3 Xrotation Yrotation Zrotation
		JOINT RightUpLeg
		{
			OFFSET -18.735201 -5.666702 -4.541200
			CHANNELS 3 Xrotation Yrotation Zrotation
			JOINT RightLeg
			{
				OFFSET 0.018946 -31.938133 0.493100
				CHANNELS 3 Xrotation Yrotation Zrotation
				JOINT RightFoot
				{
					OFFSET -0.018946 -31.938126 -4.336299
					CHANNELS 3 Xrotation Yrotation Zrotation
					JOINT RightToeBase
					{
						OFFSET -0.943001 -26.722004 15.023500
						CHANNELS 3 Xrotation Yrotation Zrotation
						End Site
						{
							OFFSET 0 0 0
						}
					}
				}
			}
		}
	}
	JOINT Hips_virtual
	{
		OFFSET 0.000000 0.000000 0.000000
		CHANNELS 3 Xrotation Yrotation Zrotation
		JOINT Hips
		{
			OFFSET -0.000000 -0.000000 -0.000000
			CHANNELS 3 Xrotation Yrotation Zrotation
			JOINT Spine
			{
				OFFSET 0.000000 10.199997 -0.299500
				CHANNELS 3 Xrotation Yrotation Zrotation
				JOINT Spine1
				{
					OFFSET 0.000000 11.900002 -1.516600
					CHANNELS 3 Xrotation Yrotation Zrotation
					JOINT Spine2
					{
						OFFSET 0.000000 13.600006 -2.842500
						CHANNELS 3 Xrotation Yrotation Zrotation
						JOINT Neck_virtual
						{
							OFFSET 0.000000 0.000000 0.000000
							CHANNELS 3 Xrotation Yrotation Zrotation
							JOINT Neck
							{
								OFFSET 0.000000 9.624100 -2.890100
								CHANNELS 3 Xrotation Yrotation Zrotation
								JOINT Head
								{
									OFFSET 0.000000 14.068802 -1.351900
									CHANNELS 3 Xrotation Yrotation Zrotation
									End Site
									{
										OFFSET 0 0 0
									}
								}
							}
						}
						JOINT LeftShoulder_virtual
						{
							OFFSET 0.000000 0.000000 0.000000
							CHANNELS 3 Xrotation Yrotation Zrotation
							JOINT LeftShoulder
							{
								OFFSET 15.263000 10.923401 -0.547700
								CHANNELS 3 Xrotation Yrotation Zrotation
								JOINT LeftArm
								{
									OFFSET 25.438599 -2.830597 -13.032500
									CHANNELS 3 Xrotation Yrotation Zrotation
									JOINT LeftForeArm
									{
										OFFSET 29.960503 0.000000 0.000000
										CHANNELS 3 Xrotation Yrotation Zrotation
										JOINT LeftHand
										{
											OFFSET 27.849251 0.000000 0.000000
											CHANNELS 3 Xrotation Yrotation Zrotation
											End Site
											{
												OFFSET 0 0 0
											}
										}
									}
								}
							}
						}
						JOINT RightShoulder_virtual
						{
							OFFSET 0.000000 0.000000 0.000000
							CHANNELS 3 Xrotation Yrotation Zrotation
							JOINT RightShoulder
							{
								OFFSET -15.263000 10.923401 -0.547700
								CHANNELS 3 Xrotation Yrotation Zrotation
								JOINT RightArm
								{
									OFFSET -25.438599 -2.830597 -13.032500
									CHANNELS 3 Xrotation Yrotation Zrotation
									JOINT RightForeArm
									{
										OFFSET -29.960503 0.000000 0.000000
										CHANNELS 3 Xrotation Yrotation Zrotation
										JOINT RightHand
										{
											OFFSET -27.849251 0.000000 0.000000
											CHANNELS 3 Xrotation Yrotation Zrotation
											End Site
											{
												OFFSET 0 0 0
											}
										}
									}
								}
							}
						}
					}
				}
			}
		}
	}
}
MOTION
Frames: 9
Frame Time: 0.03333333
-0.839795 90.053398 1.114716 0.000000 0.000000 0.000000 3.096912 -24.175069 -0.447865 -37.719870 4.389247 14.760659 41.112637 3.036951 -0.697241 -7.787548 3.255497 -4.226666 0.000000 0.000000 0.000000 7.554230 -18.224229 2.281721 -21.509410 -10.525511 -14.779044 33.217153 -0.452957 0.241858 -16.803835 -4.657275 11.280082 0.000000 0.000000 0.000000 3.021614 -6.009035 0.265972 10.095511 -5.631393 -2.206372 13.010931 3.432218 -1.146392 6.334903 1.936209 -1.183214 0.000000 0.000000 0.000000 0.173909 1.583269 -0.844622 -1.361375 0.449490 0.266747 0.000000 0.000000 0.000000 5.733552 0.163543 -0.692636 3.613625 -10.887045 -0.715187 -23.705278 -12.576082 -62.155807 -8.541782 -61.562244 -13.408246 0.000000 0.000000 0.000000 5.741299 2.689350 -2.708959 6.030517 18.901906 -7.594169 -31.445890 22.124226 65.590430 -51.858122 77.870017 58.643430 0.000000 0.000000 0.000000 
-0.061266 89.940262 1.359882 0.000000 0.000000 0.000000 3.433446 -24.803759 -0.366676 -37.349954 4.306605 14.731886 41.071174 3.047650 -0.735914 -7.666415 3.294829 -4.345706 0.000000 0.000000 0.000000 7.324323 -17.899880 1.673177 -21.596298 -10.304382 -15.294078 32.267999 -0.543129 0.274883 -17.528125 -4.815965 11.156071 0.000000 0.000000 0.000000 1.882026 -6.993229 -0.360120 13.017424 -6.446541 -0.071899 14.792906 3.170133 -1.695768 7.372854 2.030425 -1.161977 0.000000 0.000000 0.000000 0.248928 1.604009 -1.020006 -1.379283 0.578363 0.255730 0.000000 0.000000 0.000000 5.954299 -0.074795 -0.592077 4.702867 -11.396417 0.075202 -25.373386 -13.320589 -63.891707 -9.405702 -62.706047 -15.269972 0.000000 0.000000 0.000000 5.832204 2.555959 -2.946105 6.827972 18.689305 -8.747307 -31.917570 20.715598 65.933155 -55.861788 76.337029 62.672272 0.000000 0.000000 0.000000 
-0.170077 89.608139 0.900322 0.000000 0.000000 0.000000 3.549664 -24.787798 -0.092049 -37.237020 4.231655 14.978403 41.500882 2.784809 -0.957334 -7.336346 3.146503 -4.919832 0.000000 0.000000 0.000000 7.345091 -17.890618 1.255113 -21.398501 -10.204495 -15.717379 31.841813 -0.479538 0.378213 -17.937470 -4.830709 11.285410 0.000000 0.000000 0.000000 2.701221 -6.028021 0.787920 9.913903 -4.804446 1.411073 15.927571 3.423704 -2.002039 7.085220 2.158384 -0.752173 0.000000 0.000000 0.000000 0.784936 1.752909 -0.831219 -1.293007 0.537458 0.139895 0.000000 0.000000 0.000000 5.813722 0.162789 -0.057174 4.782182 -13.810790 1.250676 -29.427604 -12.751753 -64.573339 -12.314548 -61.901820 -17.926537 0.000000 0.000000 0.000000 5.684598 2.856230 -2.855173 7.257388 19.512334 -9.382960 -33.322451 21.173107 66.659347 -47.242260 73.850929 53.034971 0.000000 0.000000 0.000000 
-0.400479 90.227211 1.732508 0.000000 0.000000 0.000000 3.704851 -25.205143 0.732331 -37.435099 3.860597 15.865517 42.201208 2.800867 -0.890703 -6.668076 3.108713 -4.834959 0.000000 0.000000 0.000000 7.053892 -16.887863 1.311336 -21.584631 -9.895158 -15.408926 31.290340 -0.500782 0.584407 -18.372874 -5.002501 11.538994 0.000000 0.000000 0.000000 1.688055 -4.846876 0.236673 10.539486 -3.226315 0.863030 15.360617 2.999597 -1.040649 7.789613 2.138758 -0.806891 0.000000 0.000000 0.000000 -0.109245 1.802720 -0.565633 -1.462793 0.623999 0.174017 0.000000 0.000000 0.000000 5.974501 -0.212180 -0.015002 4.824322 -13.269817 2.033751 -28.291530 -12.263345 -64.428034 -11.495415 -61.357823 -18.130992 0.000000 0.000000 0.000000 5.701841 2.901792 -2.993552 7.239629 18.998407 -9.639700 -32.783200 19.358506 66.316533 -49.086920 74.336801 55.492808 0.000000 0.000000 0.000000 
-0.218648 89.937897 1.173050 0.000000 0.000000 0.000000 3.385461 -26.404594 0.417176 -37.729139 3.607442 15.476925 42.917367 2.752726 -1.158100 -6.049180 3.174177 -5.300046 0.000000 0.000000 0.000000 7.659652 -15.579996 1.188177 -20.692111 -9.644237 -15.415850 31.398646 -0.530124 0.651434 -18.280291 -5.043168 11.597569 0.000000 0.000000 0.000000 3.651966 -3.587216 0.196259 10.858708 -2.699011 1.757467 16.480118 3.545514 -1.535301 7.570919 2.189713 -0.499412 0.000000 0.000000 0.000000 -0.395687 1.966716 -0.873265 -1.554020 0.741067 -0.043795 0.000000 0.000000 0.000000 6.315028 -0.164784 -0.057782 5.277857 -13.395126 1.330489 -28.324701 -13.792255 -64.436373 -11.042280 -61.728361 -18.671978 0.000000 0.000000 0.000000 5.303193 3.039911 -2.885221 7.939878 20.453386 -10.823039 -33.625137 18.861497 64.281287 -44.806154 73.527751 50.708219 0.000000 0.000000 0.000000 
0.233586 89.467293 0.391932 0.000000 0.000000 0.000000 3.129165 -26.514661 0.308386 -37.849360 3.520508 15.352431 42.038329 3.265096 -0.918746 -6.600242 3.617949 -4.613298 0.000000 0.000000 0.000000 7.916987 -16.345725 1.231769 -20.304566 -9.899303 -15.434974 29.665059 -0.416856 1.236189 -19.525658 -5.358153 12.495725 0.000000 0.000000 0.000000 1.448304 -7.966372 0.305785 10.572604 -1.725228 -0.579717 16.020678 3.294284 -1.431009 8.303855 2.494735 -0.525235 0.000000 0.000000 0.000000 -0.882994 2.438663 -0.913270 -1.241609 0.838205 -0.125997 0.000000 0.000000 0.000000 6.039377 -0.136296 -0.399200 5.522889 -14.525248 0.894569 -28.552885 -13.744905 -64.022293 -9.774352 -62.070396 -18.146732 0.000000 0.000000 0.000000 5.038488 2.974110 -2.943745 7.962308 20.102881 -11.645434 -34.853444 19.220373 65.783703 -35.104266 70.690996 42.386976 0.000000 0.000000 0.000000 
0.361553 89.613525 1.634228 0.000000 0.000000 0.000000 2.935353 -27.111101 0.229086 -38.323116 3.382006 15.369080 42.017159 3.536652 -1.032537 -6.858715 3.946792 -4.651049 0.000000 0.000000 0.000000 7.800740 -16.988284 1.178984 -20.526781 -10.016819 -15.555737 29.044263 -0.042002 1.657375 -19.956421 -5.266811 13.319131 0.000000 0.000000 0.000000 1.664795 -6.887723 0.416138 7.339346 -1.296078 -1.994543 15.929179 3.864606 -1.255612 8.697996 2.001891 -0.408159 0.000000 0.000000 0.000000 -0.826359 2.536482 -0.980502 -1.207386 0.890414 -0.285847 0.000000 0.000000 0.000000 5.673833 -0.253604 -0.586948 5.042249 -16.451825 0.047505 -29.922581 -13.953038 -64.792739 -11.866784 -63.073211 -20.996988 0.000000 0.000000 0.000000 5.445078 2.898414 -2.916829 8.778287 19.499954 -12.031657 -31.832158 20.903712 65.076055 -27.568288 68.933609 35.767993 0.000000 0.000000 0.000000 
-0.297971 89.633095 0.345018 0.000000 0.000000 0.000000 3.299303 -27.595132 0.787061 -38.004337 3.108738 15.799286 42.747125 3.898482 -1.135888 -6.288010 4.379604 -4.590371 0.000000 0.000000 0.000000 8.182454 -17.637842 1.528723 -20.128456 -10.359404 -15.304197 29.579671 -0.067202 1.494761 -19.442306 -5.105548 13.031675 0.000000 0.000000 0.000000 1.912589 -8.123941 0.333365 7.904471 1.007653 -2.621186 16.281313 4.284413 -0.495491 8.159362 2.231296 -0.301106 0.000000 0.000000 0.000000 -0.924409 2.691544 -0.863736 -1.271964 0.830283 -0.207699 0.000000 0.000000 0.000000 6.245965 -0.433093 -0.573369 5.314949 -16.551700 0.714146 -29.372604 -12.716731 -63.617365 -11.229464 -61.524623 -20.367658 0.000000 0.000000 0.000000 5.075009 2.931684 -2.891249 7.959099 19.886845 -11.740278 -31.387738 21.176465 64.279252 -26.187020 67.267282 34.323282 0.000000 0.000000 0.000000 
-0.553551 89.338158 0.438755 0.000000 0.000000 0.000000 3.589312 -28.264481 0.780979 -37.599857 3.019130 15.638133 42.960568 3.774164 -1.196811 -6.051189 4.296610 -4.780482 0.000000 0.000000 0.000000 8.089020 -17.499245 1.435465 -20.246484 -10.289684 -15.379612 30.433359 0.106878 1.108821 -18.756645 -4.653536 12.552273 0.000000 0.000000 0.000000 2.897653 -7.500204 0.921432 7.711664 1.628900 -3.040383 16.470397 3.924227 -0.393668 8.270628 2.121082 0.017597 0.000000 0.000000 0.000000 -1.057742 2.918933 -0.725536 -1.265734 0.918493 -0.251192 0.000000 0.000000 0.000000 6.221257 -0.229766 -0.513291 5.531127 -16.544277 0.951790 -30.195696 -12.960304 -62.138322 -10.419074 -60.280702 -19.707927 0.000000 0.000000 0.000000 4.678828 2.694031 -2.589693 8.118277 19.380313 -11.410316 -29.684549 22.501676 62.767799 -19.633061 64.295945 27.787293 0.000000 0.000000 0.000000 
